<mxfile host="app.diagrams.net" agent="Mozilla/5.0 (Windows NT 10.0; Win64; x64) AppleWebKit/537.36 (KHTML, like Gecko) Chrome/130.0.0.0 Safari/537.36" version="24.7.16">
  <diagram name="Сторінка-1" id="zAk18bhM3zStDx0doVCu">
    <mxGraphModel dx="1257" dy="1838" grid="1" gridSize="10" guides="1" tooltips="1" connect="1" arrows="1" fold="1" page="1" pageScale="1" pageWidth="827" pageHeight="1169" math="0" shadow="0">
      <root>
        <mxCell id="0" />
        <mxCell id="1" parent="0" />
        <mxCell id="zrXwUwRDMxDnBeUwRRft-1" value="product" style="rounded=0;whiteSpace=wrap;html=1;fillColor=#ffe6cc;strokeColor=#d79b00;" parent="1" vertex="1">
          <mxGeometry x="380" y="480" width="120" height="60" as="geometry" />
        </mxCell>
        <mxCell id="zrXwUwRDMxDnBeUwRRft-3" value="" style="edgeStyle=orthogonalEdgeStyle;rounded=0;orthogonalLoop=1;jettySize=auto;html=1;endArrow=ERmandOne;endFill=0;" parent="1" source="zrXwUwRDMxDnBeUwRRft-2" target="zrXwUwRDMxDnBeUwRRft-1" edge="1">
          <mxGeometry relative="1" as="geometry" />
        </mxCell>
        <mxCell id="zrXwUwRDMxDnBeUwRRft-11" style="edgeStyle=orthogonalEdgeStyle;rounded=0;orthogonalLoop=1;jettySize=auto;html=1;entryX=0.25;entryY=1;entryDx=0;entryDy=0;endArrow=ERzeroToMany;endFill=0;" parent="1" source="zrXwUwRDMxDnBeUwRRft-2" target="zrXwUwRDMxDnBeUwRRft-4" edge="1">
          <mxGeometry relative="1" as="geometry" />
        </mxCell>
        <mxCell id="zrXwUwRDMxDnBeUwRRft-2" value="sells" style="rhombus;whiteSpace=wrap;html=1;" parent="1" vertex="1">
          <mxGeometry x="400" y="350" width="80" height="80" as="geometry" />
        </mxCell>
        <mxCell id="zrXwUwRDMxDnBeUwRRft-4" value="orders" style="rounded=0;whiteSpace=wrap;html=1;fillColor=#ffe6cc;strokeColor=#d79b00;" parent="1" vertex="1">
          <mxGeometry x="540" y="290" width="120" height="60" as="geometry" />
        </mxCell>
        <mxCell id="zrXwUwRDMxDnBeUwRRft-7" value="" style="edgeStyle=orthogonalEdgeStyle;rounded=0;orthogonalLoop=1;jettySize=auto;html=1;endArrow=ERoneToMany;endFill=0;" parent="1" source="zrXwUwRDMxDnBeUwRRft-6" target="zrXwUwRDMxDnBeUwRRft-4" edge="1">
          <mxGeometry relative="1" as="geometry">
            <Array as="points">
              <mxPoint x="630" y="390" />
            </Array>
          </mxGeometry>
        </mxCell>
        <mxCell id="zrXwUwRDMxDnBeUwRRft-10" value="" style="edgeStyle=orthogonalEdgeStyle;rounded=0;orthogonalLoop=1;jettySize=auto;html=1;curved=0;endArrow=ERmandOne;endFill=0;" parent="1" source="zrXwUwRDMxDnBeUwRRft-6" target="zrXwUwRDMxDnBeUwRRft-8" edge="1">
          <mxGeometry relative="1" as="geometry" />
        </mxCell>
        <mxCell id="zrXwUwRDMxDnBeUwRRft-6" value="Buys" style="rhombus;whiteSpace=wrap;html=1;" parent="1" vertex="1">
          <mxGeometry x="740" y="350" width="80" height="80" as="geometry" />
        </mxCell>
        <mxCell id="zrXwUwRDMxDnBeUwRRft-8" value="customer" style="rounded=0;whiteSpace=wrap;html=1;fillColor=#ffe6cc;strokeColor=#d79b00;" parent="1" vertex="1">
          <mxGeometry x="720" y="480" width="120" height="60" as="geometry" />
        </mxCell>
        <mxCell id="zrXwUwRDMxDnBeUwRRft-14" value="" style="edgeStyle=orthogonalEdgeStyle;rounded=0;orthogonalLoop=1;jettySize=auto;html=1;endArrow=ERzeroToMany;endFill=0;" parent="1" source="zrXwUwRDMxDnBeUwRRft-12" target="zrXwUwRDMxDnBeUwRRft-4" edge="1">
          <mxGeometry relative="1" as="geometry" />
        </mxCell>
        <mxCell id="pbwg-VKoNHy_JOCf0nyC-3" style="edgeStyle=orthogonalEdgeStyle;rounded=0;orthogonalLoop=1;jettySize=auto;html=1;endArrow=ERmandOne;endFill=0;" edge="1" parent="1" source="zrXwUwRDMxDnBeUwRRft-12">
          <mxGeometry relative="1" as="geometry">
            <mxPoint x="400" y="110" as="targetPoint" />
          </mxGeometry>
        </mxCell>
        <mxCell id="zrXwUwRDMxDnBeUwRRft-12" value="Placec" style="rhombus;whiteSpace=wrap;html=1;" parent="1" vertex="1">
          <mxGeometry x="480" y="170" width="80" height="80" as="geometry" />
        </mxCell>
        <mxCell id="pbwg-VKoNHy_JOCf0nyC-1" value="employee" style="rounded=0;whiteSpace=wrap;html=1;fillColor=#ffe6cc;strokeColor=#d79b00;" vertex="1" parent="1">
          <mxGeometry x="350" y="50" width="120" height="60" as="geometry" />
        </mxCell>
        <mxCell id="pbwg-VKoNHy_JOCf0nyC-4" value="first_name" style="ellipse;whiteSpace=wrap;html=1;" vertex="1" parent="1">
          <mxGeometry x="20" y="-30" width="90" height="50" as="geometry" />
        </mxCell>
        <mxCell id="pbwg-VKoNHy_JOCf0nyC-5" value="posithion" style="ellipse;whiteSpace=wrap;html=1;" vertex="1" parent="1">
          <mxGeometry x="30" y="70" width="90" height="50" as="geometry" />
        </mxCell>
        <mxCell id="pbwg-VKoNHy_JOCf0nyC-6" value="employment_date" style="ellipse;whiteSpace=wrap;html=1;" vertex="1" parent="1">
          <mxGeometry x="60" y="120" width="90" height="50" as="geometry" />
        </mxCell>
        <mxCell id="pbwg-VKoNHy_JOCf0nyC-7" value="user_name" style="ellipse;whiteSpace=wrap;html=1;" vertex="1" parent="1">
          <mxGeometry x="90" y="-60" width="90" height="50" as="geometry" />
        </mxCell>
        <mxCell id="pbwg-VKoNHy_JOCf0nyC-8" value="department_id" style="ellipse;whiteSpace=wrap;html=1;dashed=1;" vertex="1" parent="1">
          <mxGeometry x="110" y="170" width="90" height="50" as="geometry" />
        </mxCell>
        <mxCell id="pbwg-VKoNHy_JOCf0nyC-9" value="manager_id" style="ellipse;whiteSpace=wrap;html=1;dashed=1;" vertex="1" parent="1">
          <mxGeometry x="180" y="210" width="90" height="50" as="geometry" />
        </mxCell>
        <mxCell id="pbwg-VKoNHy_JOCf0nyC-10" value="rate" style="ellipse;whiteSpace=wrap;html=1;" vertex="1" parent="1">
          <mxGeometry x="260" y="230" width="90" height="50" as="geometry" />
        </mxCell>
        <mxCell id="pbwg-VKoNHy_JOCf0nyC-12" value="last_name" style="ellipse;whiteSpace=wrap;html=1;" vertex="1" parent="1">
          <mxGeometry x="20" y="20" width="90" height="50" as="geometry" />
        </mxCell>
        <mxCell id="pbwg-VKoNHy_JOCf0nyC-13" value="bonus" style="ellipse;whiteSpace=wrap;html=1;dashed=1;" vertex="1" parent="1">
          <mxGeometry x="350" y="240" width="90" height="50" as="geometry" />
        </mxCell>
        <mxCell id="pbwg-VKoNHy_JOCf0nyC-14" value="employee_id" style="ellipse;whiteSpace=wrap;html=1;" vertex="1" parent="1">
          <mxGeometry x="170" y="-80" width="90" height="50" as="geometry" />
        </mxCell>
        <mxCell id="pbwg-VKoNHy_JOCf0nyC-15" value="" style="endArrow=none;html=1;rounded=0;entryX=1;entryY=1;entryDx=0;entryDy=0;" edge="1" parent="1" target="pbwg-VKoNHy_JOCf0nyC-14">
          <mxGeometry width="50" height="50" relative="1" as="geometry">
            <mxPoint x="350" y="50" as="sourcePoint" />
            <mxPoint x="540" y="120" as="targetPoint" />
          </mxGeometry>
        </mxCell>
        <mxCell id="pbwg-VKoNHy_JOCf0nyC-16" value="" style="endArrow=none;html=1;rounded=0;entryX=1;entryY=0.5;entryDx=0;entryDy=0;exitX=0;exitY=0.25;exitDx=0;exitDy=0;" edge="1" parent="1" source="pbwg-VKoNHy_JOCf0nyC-1" target="pbwg-VKoNHy_JOCf0nyC-12">
          <mxGeometry width="50" height="50" relative="1" as="geometry">
            <mxPoint x="490" y="170" as="sourcePoint" />
            <mxPoint x="540" y="120" as="targetPoint" />
          </mxGeometry>
        </mxCell>
        <mxCell id="pbwg-VKoNHy_JOCf0nyC-17" value="" style="endArrow=none;html=1;rounded=0;entryX=1;entryY=1;entryDx=0;entryDy=0;exitX=0;exitY=0;exitDx=0;exitDy=0;" edge="1" parent="1" source="pbwg-VKoNHy_JOCf0nyC-1" target="pbwg-VKoNHy_JOCf0nyC-4">
          <mxGeometry width="50" height="50" relative="1" as="geometry">
            <mxPoint x="490" y="170" as="sourcePoint" />
            <mxPoint x="540" y="120" as="targetPoint" />
          </mxGeometry>
        </mxCell>
        <mxCell id="pbwg-VKoNHy_JOCf0nyC-18" value="" style="endArrow=none;html=1;rounded=0;entryX=0.742;entryY=0.929;entryDx=0;entryDy=0;entryPerimeter=0;exitX=0.13;exitY=0.069;exitDx=0;exitDy=0;exitPerimeter=0;" edge="1" parent="1" source="pbwg-VKoNHy_JOCf0nyC-1" target="pbwg-VKoNHy_JOCf0nyC-7">
          <mxGeometry width="50" height="50" relative="1" as="geometry">
            <mxPoint x="490" y="170" as="sourcePoint" />
            <mxPoint x="540" y="120" as="targetPoint" />
          </mxGeometry>
        </mxCell>
        <mxCell id="pbwg-VKoNHy_JOCf0nyC-19" value="" style="endArrow=none;html=1;rounded=0;exitX=1;exitY=0.5;exitDx=0;exitDy=0;entryX=0;entryY=0.25;entryDx=0;entryDy=0;" edge="1" parent="1" source="pbwg-VKoNHy_JOCf0nyC-5" target="pbwg-VKoNHy_JOCf0nyC-1">
          <mxGeometry width="50" height="50" relative="1" as="geometry">
            <mxPoint x="270" y="110" as="sourcePoint" />
            <mxPoint x="320" y="60" as="targetPoint" />
          </mxGeometry>
        </mxCell>
        <mxCell id="pbwg-VKoNHy_JOCf0nyC-20" value="" style="endArrow=none;html=1;rounded=0;entryX=0.5;entryY=0;entryDx=0;entryDy=0;exitX=0;exitY=1;exitDx=0;exitDy=0;" edge="1" parent="1" source="pbwg-VKoNHy_JOCf0nyC-1" target="pbwg-VKoNHy_JOCf0nyC-10">
          <mxGeometry width="50" height="50" relative="1" as="geometry">
            <mxPoint x="490" y="170" as="sourcePoint" />
            <mxPoint x="540" y="120" as="targetPoint" />
          </mxGeometry>
        </mxCell>
        <mxCell id="pbwg-VKoNHy_JOCf0nyC-21" value="" style="endArrow=none;html=1;rounded=0;exitX=0;exitY=0.75;exitDx=0;exitDy=0;" edge="1" parent="1" source="pbwg-VKoNHy_JOCf0nyC-1" target="pbwg-VKoNHy_JOCf0nyC-9">
          <mxGeometry width="50" height="50" relative="1" as="geometry">
            <mxPoint x="490" y="170" as="sourcePoint" />
            <mxPoint x="540" y="120" as="targetPoint" />
          </mxGeometry>
        </mxCell>
        <mxCell id="pbwg-VKoNHy_JOCf0nyC-22" value="" style="endArrow=none;html=1;rounded=0;entryX=1;entryY=0;entryDx=0;entryDy=0;exitX=0;exitY=0.5;exitDx=0;exitDy=0;" edge="1" parent="1" source="pbwg-VKoNHy_JOCf0nyC-1" target="pbwg-VKoNHy_JOCf0nyC-8">
          <mxGeometry width="50" height="50" relative="1" as="geometry">
            <mxPoint x="490" y="170" as="sourcePoint" />
            <mxPoint x="540" y="120" as="targetPoint" />
          </mxGeometry>
        </mxCell>
        <mxCell id="pbwg-VKoNHy_JOCf0nyC-23" value="" style="endArrow=none;html=1;rounded=0;entryX=1.029;entryY=0.353;entryDx=0;entryDy=0;entryPerimeter=0;exitX=0;exitY=0.5;exitDx=0;exitDy=0;" edge="1" parent="1" source="pbwg-VKoNHy_JOCf0nyC-1" target="pbwg-VKoNHy_JOCf0nyC-6">
          <mxGeometry width="50" height="50" relative="1" as="geometry">
            <mxPoint x="490" y="170" as="sourcePoint" />
            <mxPoint x="540" y="120" as="targetPoint" />
          </mxGeometry>
        </mxCell>
        <mxCell id="pbwg-VKoNHy_JOCf0nyC-24" value="" style="endArrow=none;html=1;rounded=0;entryX=0.159;entryY=1.01;entryDx=0;entryDy=0;entryPerimeter=0;" edge="1" parent="1" source="pbwg-VKoNHy_JOCf0nyC-13" target="pbwg-VKoNHy_JOCf0nyC-1">
          <mxGeometry width="50" height="50" relative="1" as="geometry">
            <mxPoint x="490" y="170" as="sourcePoint" />
            <mxPoint x="540" y="120" as="targetPoint" />
          </mxGeometry>
        </mxCell>
        <mxCell id="pbwg-VKoNHy_JOCf0nyC-28" style="edgeStyle=orthogonalEdgeStyle;rounded=0;orthogonalLoop=1;jettySize=auto;html=1;entryX=0.25;entryY=0;entryDx=0;entryDy=0;endArrow=ERzeroToMany;endFill=0;" edge="1" parent="1" source="pbwg-VKoNHy_JOCf0nyC-25" target="pbwg-VKoNHy_JOCf0nyC-1">
          <mxGeometry relative="1" as="geometry" />
        </mxCell>
        <mxCell id="pbwg-VKoNHy_JOCf0nyC-30" style="edgeStyle=orthogonalEdgeStyle;rounded=0;orthogonalLoop=1;jettySize=auto;html=1;entryX=0.75;entryY=0;entryDx=0;entryDy=0;endArrow=ERzeroToOne;endFill=0;" edge="1" parent="1" source="pbwg-VKoNHy_JOCf0nyC-25" target="pbwg-VKoNHy_JOCf0nyC-1">
          <mxGeometry relative="1" as="geometry" />
        </mxCell>
        <mxCell id="pbwg-VKoNHy_JOCf0nyC-25" value="manages" style="rhombus;whiteSpace=wrap;html=1;" vertex="1" parent="1">
          <mxGeometry x="374" y="-80" width="80" height="80" as="geometry" />
        </mxCell>
        <mxCell id="pbwg-VKoNHy_JOCf0nyC-34" style="edgeStyle=orthogonalEdgeStyle;rounded=0;orthogonalLoop=1;jettySize=auto;html=1;endArrow=ERzeroToMany;endFill=0;" edge="1" parent="1" source="pbwg-VKoNHy_JOCf0nyC-31" target="pbwg-VKoNHy_JOCf0nyC-1">
          <mxGeometry relative="1" as="geometry" />
        </mxCell>
        <mxCell id="pbwg-VKoNHy_JOCf0nyC-36" style="edgeStyle=orthogonalEdgeStyle;rounded=0;orthogonalLoop=1;jettySize=auto;html=1;entryX=0;entryY=0.5;entryDx=0;entryDy=0;endArrow=ERzeroToOne;endFill=0;" edge="1" parent="1" source="pbwg-VKoNHy_JOCf0nyC-31" target="pbwg-VKoNHy_JOCf0nyC-35">
          <mxGeometry relative="1" as="geometry" />
        </mxCell>
        <mxCell id="pbwg-VKoNHy_JOCf0nyC-31" value="work_for" style="rhombus;whiteSpace=wrap;html=1;" vertex="1" parent="1">
          <mxGeometry x="620" y="40" width="80" height="80" as="geometry" />
        </mxCell>
        <mxCell id="pbwg-VKoNHy_JOCf0nyC-35" value="department" style="rounded=0;whiteSpace=wrap;html=1;fillColor=#ffe6cc;strokeColor=#d79b00;" vertex="1" parent="1">
          <mxGeometry x="920" y="50" width="120" height="60" as="geometry" />
        </mxCell>
      </root>
    </mxGraphModel>
  </diagram>
</mxfile>
